<svg version="1.1" xmlns="http://www.w3.org/2000/svg" style="display: block;" viewBox="0 0 2048 776" width="1000" height="379" preserveAspectRatio="none">
<defs>
	<linearGradient id="Gradient1" gradientUnits="userSpaceOnUse" x1="170.393" y1="627.825" x2="486.781" y2="611.132">
		<stop class="stop0" offset="0" stop-opacity="1" stop-color="rgb(1,88,208)"/>
		<stop class="stop1" offset="1" stop-opacity="1" stop-color="rgb(0,157,233)"/>
	</linearGradient>
	<linearGradient id="Gradient2" gradientUnits="userSpaceOnUse" x1="1934.67" y1="629.517" x2="1618.11" y2="612.487">
		<stop class="stop0" offset="0" stop-opacity="1" stop-color="rgb(0,88,208)"/>
		<stop class="stop1" offset="1" stop-opacity="1" stop-color="rgb(1,157,233)"/>
	</linearGradient>
	<linearGradient id="Gradient3" gradientUnits="userSpaceOnUse" x1="544.484" y1="488.113" x2="843.56" y2="500.846">
		<stop class="stop0" offset="0" stop-opacity="1" stop-color="rgb(0,167,237)"/>
		<stop class="stop1" offset="1" stop-opacity="1" stop-color="rgb(0,203,249)"/>
	</linearGradient>
	<linearGradient id="Gradient4" gradientUnits="userSpaceOnUse" x1="545.399" y1="226.373" x2="706.756" y2="195.867">
		<stop class="stop0" offset="0" stop-opacity="1" stop-color="rgb(1,155,248)"/>
		<stop class="stop1" offset="1" stop-opacity="1" stop-color="rgb(0,183,254)"/>
	</linearGradient>
	<linearGradient id="Gradient5" gradientUnits="userSpaceOnUse" x1="176.412" y1="179.963" x2="349.852" y2="188.947">
		<stop class="stop0" offset="0" stop-opacity="1" stop-color="rgb(0,90,241)"/>
		<stop class="stop1" offset="1" stop-opacity="1" stop-color="rgb(0,120,254)"/>
	</linearGradient>
	<linearGradient id="Gradient6" gradientUnits="userSpaceOnUse" x1="1379.25" y1="241.936" x2="1213.82" y2="180.574">
		<stop class="stop0" offset="0" stop-opacity="1" stop-color="rgb(0,179,252)"/>
		<stop class="stop1" offset="1" stop-opacity="1" stop-color="rgb(6,203,253)"/>
	</linearGradient>
	<linearGradient id="Gradient7" gradientUnits="userSpaceOnUse" x1="1570.11" y1="204.573" x2="1387.74" y2="177.272">
		<stop class="stop0" offset="0" stop-opacity="1" stop-color="rgb(1,151,248)"/>
		<stop class="stop1" offset="1" stop-opacity="1" stop-color="rgb(1,190,255)"/>
	</linearGradient>
	<linearGradient id="Gradient8" gradientUnits="userSpaceOnUse" x1="536.01" y1="230.097" x2="357.454" y2="245.858">
		<stop class="stop0" offset="0" stop-opacity="1" stop-color="rgb(1,153,246)"/>
		<stop class="stop1" offset="1" stop-opacity="1" stop-color="rgb(0,121,252)"/>
	</linearGradient>
	<linearGradient id="Gradient9" gradientUnits="userSpaceOnUse" x1="1570.05" y1="667.705" x2="1251.38" y2="673.393">
		<stop class="stop0" offset="0" stop-opacity="1" stop-color="rgb(0,165,236)"/>
		<stop class="stop1" offset="1" stop-opacity="1" stop-color="rgb(0,204,250)"/>
	</linearGradient>
</defs>
<path transform="translate(0,0)" fill="url(#Gradient9)" d="M 1388.91 573.279 L 1435.01 573.11 L 1434.96 589.032 C 1452.21 588.554 1471.57 588.981 1488.97 588.995 C 1487.31 583.963 1485.76 578.505 1484.21 573.404 C 1498.95 573.226 1513.7 573.171 1528.45 573.239 C 1531.4 579.739 1532.27 582.138 1533.78 589.077 C 1544.9 589.021 1560.22 589.342 1570.94 588.244 L 1570.91 631.994 C 1555.93 631.051 1541.24 632.214 1525.87 630.792 C 1539.6 644.904 1553.38 657.155 1572.65 663.411 C 1573.25 678.689 1572.85 696.027 1572.82 711.453 C 1565.27 708.123 1557.65 704.952 1549.96 701.942 C 1550.46 723.255 1550.13 745.762 1550.15 767.165 C 1507.95 766.191 1463.45 767.042 1420.97 766.914 C 1420.77 747.887 1421.48 727.95 1421.3 708.678 C 1421.16 692.888 1420.82 671.139 1422.06 655.753 C 1445.45 655.965 1468.84 656.034 1492.24 655.96 C 1487.45 649.07 1481.74 638.596 1478.13 631.103 C 1470.94 631.607 1462.54 631.508 1455.25 631.595 C 1418.64 631.633 1381.22 632.08 1344.67 631.564 C 1342.21 638.4 1334.53 650.029 1330.28 655.951 C 1354.22 656.078 1378.17 655.973 1402.11 655.634 C 1401.52 692.245 1402.04 730.346 1402.03 767.078 L 1272.81 767.025 C 1271.89 747.418 1272.7 721.862 1272.9 702.031 C 1265.42 705.368 1257.86 708.527 1250.23 711.503 C 1249.99 695.681 1249.96 679.856 1250.13 664.032 C 1273.25 650.02 1273.48 654.077 1296.34 631.128 C 1283.69 632.223 1265.3 631.745 1252.22 631.773 C 1251.77 618.211 1251.98 602.036 1252.27 588.55 C 1295.93 590.064 1344.77 588.937 1388.94 588.954 L 1388.91 573.279 z M 1317.01 727.994 L 1358.17 728.073 C 1358.06 716.631 1358.03 705.189 1358.09 693.747 L 1316.92 693.981 C 1316.8 704.751 1316.5 717.262 1317.01 727.994 z M 1465.25 728.073 L 1505.77 728.038 C 1507.29 725.511 1506.07 699.319 1506.15 693.887 L 1465.39 693.98 C 1465.47 705.223 1465.69 716.877 1465.25 728.073 z"/>
<path transform="translate(0,0)" fill="rgb(3,202,250)" d="M 1030.9 75.0114 C 1044.81 74.3533 1065.04 74.3986 1079.16 74.6635 C 1105.2 75.7068 1130.3 71.4532 1155.57 79.6044 C 1196.45 92.7949 1208.64 135.377 1196.5 173.528 C 1191.3 189.866 1178.59 200.853 1163.29 208.102 C 1175.44 231.788 1189.25 254.553 1202 277.907 C 1204.09 281.742 1207.52 288.286 1205.15 292.269 C 1197.28 295.455 1167.81 294.085 1157.73 293.966 C 1150.42 289.549 1120.05 229.57 1113.47 217.903 C 1101.12 218.049 1088.77 218.001 1076.42 217.76 C 1077.24 227.494 1077.24 283.139 1074.9 290.867 C 1072.74 293.068 1071.22 293.963 1068.03 293.799 C 1059.37 293.351 1034 296.57 1027.21 291.304 C 1025.69 287.292 1025.14 281.068 1025.03 276.716 C 1023.89 229.108 1024.1 181.27 1024.57 133.633 C 1024.73 116.548 1023.32 98.3473 1024.95 81.3041 C 1025.27 77.9651 1028.22 76.7774 1030.9 75.0114 z M 1076.51 175.064 C 1092.72 175.051 1130.16 177.641 1141.82 169.929 C 1150.11 158.707 1150.53 150.902 1149.05 137.095 C 1145.77 106.512 1099.52 113.54 1076.5 113.853 C 1077.02 133.761 1075.72 155.953 1076.51 175.064 z"/>
<path transform="translate(0,0)" fill="url(#Gradient8)" d="M 398.508 127.467 L 440.532 127.361 C 467.047 127.319 492.306 125.52 512.745 145.749 C 531.446 164.258 535.486 187.256 536.183 212.473 C 537.178 248.515 521.658 281.843 484.694 291.448 C 470.653 295.168 459.578 294.855 445.25 294.846 L 418.933 294.897 C 418.912 305.809 420.346 348.219 417.131 355.631 C 415.782 356.977 413.682 358.6 411.83 358.615 C 403.062 358.69 373.301 361.569 366.596 356.998 C 363.346 345.488 367.01 168.064 366.388 143.01 C 366.346 141.335 367.453 132.193 369.541 131.64 C 369.655 131.553 369.769 131.467 369.883 131.381 C 375.77 126.411 390.135 127.623 398.508 127.467 z M 418.002 254.662 C 436.371 254.451 451.871 255.49 470.696 253.889 C 472.413 252.719 476.339 250.204 477.737 248.97 C 482.049 243.325 484.905 238.668 485.229 231.216 C 488.253 161.767 479.769 167.98 418.631 168.05 C 419.516 193.767 417.79 227.706 418.002 254.662 z"/>
<path transform="translate(0,0)" fill="url(#Gradient7)" d="M 1413.32 71.29 C 1421.97 71.0531 1451.61 67.1952 1451.41 80.9879 C 1451.19 96.5886 1450.96 111.992 1451.29 127.682 C 1484.68 124.8 1536.01 123.964 1555.85 155.936 C 1574.61 186.17 1576.78 259.082 1543.47 279.737 C 1533.47 286.477 1517.02 294.124 1505.29 294.42 C 1485.93 294.909 1419.44 299.896 1404.43 293.872 C 1399.64 288.091 1400.92 258.364 1400.93 249.712 L 1400.99 187.146 C 1400.97 154.307 1400.71 121.586 1400.14 88.7627 C 1399.94 76.9751 1401.92 72.8714 1413.32 71.29 z M 1451.94 256.125 C 1466.18 255.809 1480.65 255.832 1494.89 255.26 C 1501.43 254.998 1505.55 253.967 1510.46 249.432 C 1520.17 237.591 1520.99 183.246 1507.06 173.483 C 1496.23 165.891 1465.52 168.602 1451.18 167.699 C 1451.07 197.044 1452.1 227.502 1451.94 256.125 z"/>
<path transform="translate(0,0)" fill="rgb(1,129,246)" d="M 1652.58 126.399 C 1673.06 121.8 1705.7 128.453 1722.74 140.804 C 1750.16 160.237 1756.19 194.093 1753.59 225.749 C 1749.83 271.703 1722.16 290.452 1679.25 297.688 C 1678.57 297.79 1677.88 297.873 1677.19 297.936 C 1626.56 302.406 1581.41 280.181 1578.11 225.164 C 1574.8 170.063 1593.93 131.241 1652.58 126.399 z M 1667.25 256.959 C 1704.22 256.039 1702.8 235.984 1702.89 205.407 C 1702.95 182.607 1693.51 164.94 1667.54 167.432 C 1658.72 168.339 1641.73 168.769 1636.41 176.51 C 1627.21 189.9 1627.61 212.225 1629.29 227.576 C 1632.08 253.073 1644.08 257.673 1667.25 256.959 z"/>
<path transform="translate(0,0)" fill="url(#Gradient6)" d="M 1286.47 122.669 C 1335.38 117.055 1379.64 152.007 1385.51 200.886 C 1391.39 249.766 1356.67 294.208 1307.82 300.342 C 1258.61 306.522 1213.76 271.486 1207.84 222.238 C 1201.92 172.99 1237.19 128.326 1286.47 122.669 z M 1271.34 253.112 C 1284.46 257.258 1290.76 257.427 1304.64 256.945 C 1314.86 255.59 1320.12 255.268 1327.21 246.108 C 1336.23 234.44 1334.6 211.243 1332.96 197.473 C 1331.97 189.194 1328.9 179.739 1323.53 173.231 C 1314.96 168.855 1300.94 165.567 1291.66 167.412 C 1284.44 167.777 1273.04 168.436 1267.85 174.406 C 1257.85 185.904 1260.16 211.491 1260.38 226.118 C 1260.53 236.179 1263.99 246.243 1271.34 253.112 z"/>
<path transform="translate(0,0)" fill="rgb(3,202,250)" d="M 737.77 539.447 C 739.309 539.404 738.829 539.414 740.354 540.353 C 741.126 555.03 741.231 597.145 739.941 611.011 C 751.146 603.415 780.855 589.963 793.857 582.765 C 807.615 575.149 824.103 565.988 837.986 559.093 L 837.949 610.743 C 814.355 627.674 767.173 650.26 740.252 661.638 C 740.566 678.157 741.513 708.057 740.16 723.864 C 777.081 724.05 814.002 723.876 850.919 723.341 L 850.933 753.841 L 851.003 769.035 C 798.672 768.425 745.987 769.556 693.672 768.764 C 693.097 756.643 693.781 739.889 693.65 727.267 C 693.521 714.837 693.203 694.269 694.454 682.404 C 669.969 692.026 651.69 700.45 625.734 709.476 C 625.128 693.921 625.466 675.608 625.411 659.839 C 635.056 655.158 645.25 652.419 654.992 648.364 C 667.974 642.959 681.023 637.24 693.963 631.688 C 693.361 605.796 691.94 564.359 694.816 539.613 C 709.13 540.138 723.46 540.083 737.77 539.447 z"/>
<path transform="translate(0,0)" fill="url(#Gradient5)" d="M 291.276 74.4997 C 302.093 74.8725 325.179 74.5937 335.193 78.9359 C 338.556 80.394 339.031 117.818 334.564 118.077 C 302.907 119.914 262.697 107.943 233.263 122.23 C 230.534 123.554 227.324 132.423 227.444 135.408 C 226.105 152.189 247.465 156.605 259.904 159.276 C 308.305 169.812 356.386 181.218 349.269 242.887 C 342.612 300.58 273.495 299.231 229.247 295.143 C 215.018 294.707 192.283 292.763 179.388 287.521 C 179.835 281.277 181.338 249.446 189.209 249.644 C 222.272 250.473 258.956 259.6 291.698 252.197 C 296.094 251.204 299.323 242.227 300.813 238.531 C 299.739 233.701 298.506 227.588 295.207 223.757 C 278.52 204.373 216.856 207.674 191.872 183.261 C 180.908 172.547 177.035 157.566 176.947 142.637 C 176.844 125.219 180.846 108.125 193.509 95.4697 C 218.08 70.914 259.236 74.558 291.276 74.4997 z"/>
<path transform="translate(0,0)" fill="url(#Gradient4)" d="M 581.113 127.463 C 593.723 125.905 643.25 127.084 655.405 129.157 C 672.089 132.003 686.684 139.602 696.487 153.659 C 700.088 158.824 703.054 164.952 704.294 171.156 C 707.148 185.449 708.791 270.243 706.147 284.732 C 705.73 287.015 705.047 290.349 702.957 291.677 C 694.531 297.031 617.263 294.644 602.923 293.624 C 596.061 293.136 589.441 291.886 582.729 290.45 C 534.917 275.701 537.733 208.296 584.581 195.131 C 599.004 191.078 610.305 191.956 624.984 192.022 C 636.529 192.094 648.075 192.058 659.619 191.914 C 657.98 181.998 655.685 170.216 643.801 168.339 C 630.762 166.28 616.68 167.509 603.433 167.545 C 592.162 167.576 581.951 167.227 570.703 166.399 C 565.013 154.173 562.75 141.432 561.537 128.071 L 581.113 127.463 z M 653.25 256.01 L 657.372 255.655 C 660.363 251.797 658.54 235.391 658.854 229.19 C 640.819 228.974 622.782 228.955 604.747 229.132 C 600.989 231.383 597.78 233.241 596.96 237.849 C 592.728 261.633 623.715 255.616 637.719 256.221 C 642.903 256.444 648.297 256.082 653.25 256.01 z"/>
<path transform="translate(0,0)" fill="rgb(3,202,250)" d="M 861.496 70.4025 C 868.983 70.1694 891.033 67.9964 896.209 73.1361 C 899.759 84.483 898.453 174.166 897.976 191.008 C 911.77 174.883 937.696 140.024 952.146 126.953 C 970.582 127.223 989.25 127.017 1007.63 127.667 C 1000.79 140.059 961.105 184.451 950.013 196.482 C 954.214 204.21 963.516 216.426 968.824 223.819 C 978.256 236.715 987.281 249.904 995.886 263.366 C 1000.07 268.802 1012.97 284.253 1012.74 288.592 C 1012.31 297.056 967.613 294.084 961.923 293.9 C 955.76 288.777 922.691 240.705 918.714 232.476 C 912.156 239.154 903.895 249.221 898.147 256.583 C 897.853 264.469 902.027 293.267 890.157 293.732 C 883.979 293.652 849.909 297.372 849.711 288.277 C 848.227 220.147 849.499 151.511 849.618 83.2854 C 849.635 73.3994 852.846 72.4719 861.496 70.4025 z"/>
<path transform="translate(0,0)" fill="rgb(3,202,250)" d="M 959.273 459.002 L 1003.59 458.956 C 1003.09 470.516 1003.41 484.553 1003.36 496.308 C 1014.24 496.179 1025.12 496.203 1036 496.38 C 1036.51 510.168 1036.14 526.121 1035.98 539.994 L 1003.34 540.126 L 1003.46 581.652 C 1011.92 586.527 1023.53 592.772 1030.73 598.895 C 1031.56 615 1031.09 634.718 1031.1 651.137 C 1024.76 648.627 1009.85 638.337 1003.42 634.113 L 1003.46 764.249 C 1003.47 767.603 1003.66 768.947 1002.21 771.933 C 997.954 774.696 965.129 772.925 958.81 771.895 C 957.646 759.315 958.251 738.704 958.308 725.586 L 958.573 646.399 L 958.314 573.498 C 958.234 563.937 957.245 548.603 957.849 539.948 L 900.083 540.058 C 899.955 525.517 899.968 510.976 900.123 496.435 C 916.008 495.53 941.712 496.427 958.211 496.447 C 958.239 483.958 958.593 471.472 959.273 459.002 z"/>
<path transform="translate(0,0)" fill="url(#Gradient3)" d="M 612.309 454.997 C 627.575 455.505 643.033 455.198 658.319 455.039 L 658.369 473.114 C 680.497 473.378 709.206 474.306 730.846 472.896 C 730.602 465.941 730.931 461.973 731.637 455.008 C 746.736 455.179 762.056 455.042 777.174 455.041 L 777.166 473.392 C 796.481 471.988 827.644 475.399 845.835 472.128 L 845.847 517.909 C 828.107 516.134 795.771 517.238 777.189 517.421 C 777.291 521.173 777.954 531.169 776.772 534.122 L 730.446 534.041 C 730.065 527.239 729.873 523.773 730.865 517.09 C 706.655 517.025 682.445 517.139 658.237 517.431 L 658.695 534.102 C 643.731 534.087 627.296 533.75 612.461 534.508 C 612.216 528.684 612.433 522.899 612.587 517.075 C 592.044 517.156 563.175 516.32 543.407 517.717 C 542.7 504.393 543.218 486.647 543.214 472.992 C 566.3 473.35 589.391 473.384 612.479 473.092 L 612.309 454.997 z"/>
<path transform="translate(0,0)" fill="rgb(1,129,246)" d="M 1777.85 93.2506 C 1819.34 92.8704 1820.52 83.4322 1820.24 127.942 C 1829.24 127.034 1867.42 126.429 1874.76 129.163 C 1878.77 133.45 1878.36 160.134 1875.31 165.774 C 1869.12 171.004 1829.05 168.384 1818.87 168.09 C 1818.67 189.245 1819.03 217.49 1820.61 238.909 C 1820.77 241.12 1824.08 246.513 1825.42 248.694 C 1836.35 253.601 1850.61 252.512 1862.61 252.484 C 1866.75 252.303 1868.45 252.141 1872.59 253.053 C 1877.49 256.924 1877.9 291.212 1871.66 292.233 C 1860.57 294.047 1828.85 293.297 1818.09 291.702 C 1811.85 290.834 1805.74 289.189 1799.91 286.803 C 1787 281.375 1778.51 272.319 1773.32 259.385 C 1770.51 252.394 1769.78 245.743 1769.28 238.279 C 1768.31 223.891 1767.46 104.977 1770.25 98.6149 C 1770.31 98.4849 1770.37 98.3571 1770.43 98.2272 C 1770.48 98.1032 1770.53 97.9771 1770.59 97.8534 C 1771.75 95.2737 1775.38 94.2215 1777.85 93.2506 z"/>
<path transform="translate(0,0)" fill="rgb(3,202,250)" d="M 1268.9 464.929 C 1284.31 464.327 1303.76 464.846 1319.46 464.839 C 1346.92 464.734 1374.39 464.779 1401.85 464.975 L 1401.67 568.497 C 1397.19 569.051 1368.78 568.399 1362.68 568.388 C 1331.43 568.172 1300.17 568.262 1268.92 568.657 C 1267.96 535.474 1268.83 498.354 1268.9 464.929 z M 1315.14 530.627 C 1328.64 530.375 1342.14 530.335 1355.64 530.51 C 1357.15 528.243 1356.14 507.309 1356.4 502.002 C 1344.66 502.109 1325.93 502.833 1314.7 502.071 C 1314.67 511.508 1313.99 521.402 1315.14 530.627 z"/>
<path transform="translate(0,0)" fill="rgb(2,168,236)" d="M 1422.02 464.895 L 1554.24 464.93 C 1553.13 490.283 1554.96 540.23 1553.49 566.998 C 1552.84 567.856 1552.29 568.588 1551.83 569.194 C 1535.52 567.932 1515.34 568.357 1498.74 568.368 C 1473.18 568.306 1447.62 568.425 1422.06 568.724 L 1422.02 464.895 z M 1467.67 530.63 C 1481.31 530.389 1494.96 530.39 1508.6 530.633 C 1508.61 522.323 1507.88 509.831 1508.6 502.034 C 1495.07 502.028 1480.79 502.219 1467.33 501.874 C 1467.43 511.38 1467.42 521.152 1467.67 530.63 z"/>
<path transform="translate(0,0)" fill="rgb(2,168,236)" d="M 640.929 539.765 C 644.077 549.97 619.007 594.166 616.709 604.563 C 614.048 616.598 615.69 637.674 615.725 650.515 L 615.835 727.546 C 615.848 741.325 616.377 759.617 615.375 772.822 C 602.076 773.802 584.412 772.613 570.017 773.235 C 569.144 757.503 569.814 734.752 569.818 718.5 C 569.776 697.597 569.42 675.542 570.044 654.748 C 556.209 665.058 550.309 668.982 535.151 677.048 C 534.578 659.364 534.957 639.426 534.911 621.571 C 566.489 594.662 579.675 578.987 596.225 539.872 C 611.126 540.003 626.028 539.968 640.929 539.765 z"/>
<path transform="translate(0,0)" fill="rgb(3,202,250)" d="M 785.567 127.595 C 794.487 126.526 825.115 125.842 832.766 128.861 C 833.124 129.347 833.494 129.893 833.693 130.467 C 836.094 137.402 836.564 157.54 833.139 163.973 C 827.436 174.683 800.911 167.679 789.931 171.362 C 761.682 180.839 785.22 269.334 773.189 292.837 C 767.065 293.193 732.674 296.285 729.862 291.075 C 723.213 278.752 726.647 251.291 726.959 236.389 C 727.569 207.215 722.263 172.269 742.232 148.473 C 751.556 137.293 771.541 128.409 785.567 127.595 z"/>
<path transform="translate(0,0)" fill="rgb(3,202,250)" d="M 909.819 552.975 C 917.001 552.908 942.402 551.952 947.21 554.395 C 950.28 560.505 948.194 582.906 947.968 590.758 C 946.347 646.87 941.658 699.201 931.486 754.493 C 920.777 755.077 901.955 754.676 891.407 754.21 C 892.408 739.669 898.754 708.99 900.902 692.083 C 907.18 645.985 910.16 599.497 909.819 552.975 z"/>
<path transform="translate(0,0)" fill="rgb(2,168,236)" d="M 442.795 487.937 L 489.847 487.641 C 486.708 502.382 481.263 518.93 477.447 533.764 C 470.308 561.523 463.208 590.026 454.677 617.392 C 438.95 617.149 423.221 617 407.492 616.948 C 415.105 586.285 423.166 555.735 431.672 525.309 C 434.08 516.557 439.354 494.663 442.795 487.937 z"/>
<path transform="translate(0,0)" fill="rgb(0,97,212)" d="M 182.379 487.651 C 196.319 488.46 215.41 487.864 229.724 487.843 C 235.814 504.406 242.67 534.705 247.325 552.488 C 252.205 571.129 261.262 598.453 264.637 616.337 C 260.049 617.998 222.999 617.02 216.4 616.602 C 205.755 573.438 194.413 530.449 182.379 487.651 z"/>
<path transform="translate(0,0)" fill="rgb(3,202,250)" d="M 1042.92 469.832 C 1089.54 470.195 1136.15 470.221 1182.77 469.91 L 1182.95 726.385 C 1192.74 726.316 1204.09 726.477 1213.74 725.878 C 1213.84 738.825 1214.61 760.378 1213.53 772.747 C 1188.6 773.961 1162.16 772.082 1137.59 773.05 C 1136.67 757.253 1137.15 737.752 1137.15 721.64 L 1137.2 634.108 L 1137.14 558.603 C 1137.13 545.896 1136.6 529.095 1137.52 516.834 L 1088.71 516.975 C 1088.6 592.697 1095.82 675.855 1067.26 747.303 C 1064.02 755.422 1060.38 769.307 1055.26 776 L 1005.94 776 C 1009.46 763.887 1016.23 750.227 1021.19 738.471 C 1026.12 726.488 1030.17 714.161 1033.31 701.588 C 1044.37 656.832 1042.98 621.724 1042.97 576.435 L 1042.92 469.832 z"/>
<path transform="translate(0,0)" fill="url(#Gradient2)" d="M 1745.76 459.767 C 1758.21 459.878 1783.28 460.667 1794.9 459.269 C 1794.62 539.495 1785.85 609.013 1847.64 671.297 C 1871.03 694.593 1899.11 712.645 1930.01 724.254 C 1930.25 741.502 1930.26 758.752 1930.06 776 L 1927.27 776 C 1916.14 770.365 1901.47 766.848 1889.49 760.992 C 1845.86 739.661 1808.48 709.875 1782.73 668.228 C 1778.51 661.404 1773.09 652.142 1770.51 644.694 C 1734.59 715.724 1686.48 749.7 1612.65 776 L 1610.39 776 C 1610.15 758.877 1610.13 741.751 1610.33 724.628 C 1618.58 719.635 1630.67 715.129 1640.39 709.831 C 1688.07 683.847 1726.25 642.076 1739.46 588.38 C 1749.1 549.196 1746.07 501.249 1745.76 459.767 z"/>
<path transform="translate(0,0)" fill="url(#Gradient1)" d="M 312.448 456.726 C 326.592 456.786 345.504 457.348 359.233 456.039 C 360.694 487.179 358.227 521.185 359.853 551.532 C 362.569 602.221 385.108 650.005 423.478 683.367 C 448.743 705.333 465.823 713.547 495.531 727.566 C 495.956 739.053 496.52 764.831 495.698 776 L 493.174 776 C 488.423 773.31 472.216 767.996 466.223 765.525 C 410.207 742.426 360.424 699.125 335.967 643.348 C 330.748 652.616 328.248 660.579 321.705 670.463 C 284.009 727.398 240.58 753.021 178.766 776 L 176.219 776 C 176.46 759.886 176.426 743.768 176.115 727.655 C 186.118 722.713 194.907 719.514 204.986 713.876 C 248.167 689.722 284.262 652.767 301.22 605.809 C 317.328 561.205 312.102 504.598 312.448 456.726 z"/>
</svg>